<svg width="133" height="63" viewBox="0 0 133 63" fill="none" xmlns="http://www.w3.org/2000/svg">
<g filter="url(#filter0_d_5_40)">
<mask id="mask0_5_40" style="mask-type:alpha" maskUnits="userSpaceOnUse" x="17" y="19" width="22" height="25">
<path d="M26.9715 19.6311L23.543 21.6718C22.4818 22.3248 20.0982 23.7942 19.0534 24.4472C18.0085 25.1003 17.6929 25.8077 17.6656 26.0798V36.4468C17.6656 37.4917 18.1554 38.025 18.4003 38.1611C20.822 39.6304 25.9266 42.7323 26.9715 43.3854C28.0163 44.0384 29.0394 43.6575 29.4204 43.3854C31.7332 41.9977 36.5875 39.0753 37.5017 38.4876C38.416 37.8998 38.6446 37.0455 38.6446 36.6917V26.0798C38.6446 25.3615 38.0459 24.8554 37.7466 24.6921C35.3794 23.2772 30.3999 20.2841 29.4204 19.6311C28.4408 18.978 27.3796 19.359 26.9715 19.6311Z" fill="#11B2E4"/>
</mask>
<g mask="url(#mask0_5_40)">
<path d="M26.9715 19.6311L23.543 21.6718C22.4818 22.3248 20.0982 23.7942 19.0534 24.4472C18.0085 25.1003 17.6929 25.8077 17.6656 26.0798V36.4468C17.6656 37.4917 18.1554 38.025 18.4003 38.1611C20.822 39.6304 25.9266 42.7323 26.9715 43.3854C28.0163 44.0384 29.0394 43.6575 29.4204 43.3854C31.7332 41.9977 36.5875 39.0753 37.5017 38.4876C38.416 37.8998 38.6446 37.0455 38.6446 36.6917V26.0798C38.6446 25.3615 38.0459 24.8554 37.7466 24.6921C35.3794 23.2772 30.3999 20.2841 29.4204 19.6311C28.4408 18.978 27.3796 19.359 26.9715 19.6311Z" fill="#8B59FC"/>
<path d="M28.0078 31.4863L18.2564 37.2843C17.983 37.4469 17.9721 37.8385 18.2376 38.0139C20.8799 39.7598 25.4727 42.7708 26.4694 43.3308C27.5426 43.9338 28.5376 43.7496 28.9009 43.5821L38.0212 38.006C38.2973 37.8372 38.2962 37.4358 38.0192 37.2684L28.4515 31.4878C28.3152 31.4055 28.1447 31.4049 28.0078 31.4863Z" fill="#7F51E6"/>
<path d="M38.7216 25.0956L28.0185 31.4559C27.9786 31.4797 27.9782 31.5373 28.0178 31.5615L38.7178 38.1026C38.7475 38.1207 38.7862 38.1107 38.8035 38.0805L39.1121 37.54C39.1174 37.5307 39.1202 37.5201 39.1202 37.5094V25.6071C39.1202 25.595 39.1166 25.5831 39.1099 25.5729L38.8045 25.1144C38.7863 25.0871 38.7499 25.0788 38.7216 25.0956Z" fill="#754AD7"/>
</g>
<path d="M49.231 19.2089L43.3053 15.8705L43.2218 40.241L28.1155 48.9209L17.8499 43.0786V50.0058L28.1155 56.015L49.231 43.6628V19.2089Z" fill="#8B5CF6"/>
<path d="M38.3811 12.9494V19.7097L28.032 14.1178L13.0092 22.7977V47.1682L7 43.7463V19.2089L28.032 6.94025L38.3811 12.9494Z" fill="#8B5CF6"/>
</g>
<path d="M71.7164 41H66.9617C64.9396 41 63.3684 40.4398 62.248 39.3195C61.155 38.1991 60.6085 36.6416 60.6085 34.6468V20.9976C60.6085 18.9755 61.155 17.4179 62.248 16.3249C63.3684 15.2046 64.9396 14.6444 66.9617 14.6444H71.7164C73.7111 14.6444 75.2687 15.2046 76.389 16.3249C77.5094 17.4179 78.0696 18.9755 78.0696 20.9976V22.965C78.0696 23.4569 77.8236 23.7028 77.3318 23.7028H74.7495C74.285 23.7028 74.0527 23.4569 74.0527 22.965V21.1616C74.0527 19.1394 73.069 18.1284 71.1015 18.1284H67.5355C65.5681 18.1284 64.5843 19.1394 64.5843 21.1616V34.4828C64.5843 36.5049 65.5681 37.516 67.5355 37.516H71.1015C73.069 37.516 74.0527 36.5049 74.0527 34.4828V32.6793C74.0527 32.1875 74.285 31.9415 74.7495 31.9415H77.3318C77.8236 31.9415 78.0696 32.1875 78.0696 32.6793V34.6468C78.0696 36.6416 77.5094 38.1991 76.389 39.3195C75.2687 40.4398 73.7111 41 71.7164 41ZM101.189 14.6444H105.779C106.244 14.6444 106.476 14.8766 106.476 15.3412V40.3032C106.476 40.7677 106.244 41 105.779 41H103.238C102.774 41 102.541 40.7677 102.541 40.3032V19.604H102.377L97.0489 34.6058C96.8849 35.043 96.5843 35.2616 96.1471 35.2616H93.5239C93.114 35.2616 92.827 35.043 92.6631 34.6058L87.2116 19.563H87.0477V40.3032C87.0477 40.5765 86.993 40.7677 86.8837 40.877C86.8017 40.959 86.6241 41 86.3509 41H83.8506C83.386 41 83.1538 40.7677 83.1538 40.3032V15.3412C83.1538 14.8766 83.386 14.6444 83.8506 14.6444H88.4413C88.7419 14.6444 88.9605 14.7947 89.0971 15.0952L94.7125 30.9168H94.9175L100.574 15.0952C100.629 14.7947 100.833 14.6444 101.189 14.6444ZM123.152 41H118.397C116.375 41 114.804 40.4398 113.684 39.3195C112.591 38.1991 112.044 36.6416 112.044 34.6468V20.9976C112.044 18.9755 112.591 17.4179 113.684 16.3249C114.804 15.2046 116.375 14.6444 118.397 14.6444H123.152C125.147 14.6444 126.704 15.2046 127.825 16.3249C128.945 17.4179 129.505 18.9755 129.505 20.9976V22.965C129.505 23.4569 129.259 23.7028 128.768 23.7028H126.185C125.721 23.7028 125.488 23.4569 125.488 22.965V21.1616C125.488 19.1394 124.505 18.1284 122.537 18.1284H118.971C117.004 18.1284 116.02 19.1394 116.02 21.1616V34.4828C116.02 36.5049 117.004 37.516 118.971 37.516H122.537C124.505 37.516 125.488 36.5049 125.488 34.4828V32.6793C125.488 32.1875 125.721 31.9415 126.185 31.9415H128.768C129.259 31.9415 129.505 32.1875 129.505 32.6793V34.6468C129.505 36.6416 128.945 38.1991 127.825 39.3195C126.704 40.4398 125.147 41 123.152 41Z" fill="white"/>
<path d="M63.6288 51.5011H62.7778C62.4158 51.5011 62.1346 51.4008 61.934 51.2003C61.7384 50.9998 61.6406 50.721 61.6406 50.3639V47.9208C61.6406 47.5589 61.7384 47.2801 61.934 47.0845C62.1346 46.8839 62.4158 46.7837 62.7778 46.7837H63.6288C63.9858 46.7837 64.2646 46.8839 64.4652 47.0845C64.6657 47.2801 64.766 47.5589 64.766 47.9208V48.273C64.766 48.361 64.7219 48.4051 64.6339 48.4051H64.1717C64.0886 48.4051 64.047 48.361 64.047 48.273V47.9502C64.047 47.5883 63.8709 47.4073 63.5187 47.4073H62.8805C62.5283 47.4073 62.3522 47.5883 62.3522 47.9502V50.3346C62.3522 50.6965 62.5283 50.8775 62.8805 50.8775H63.5187C63.8709 50.8775 64.047 50.6965 64.047 50.3346V50.0118C64.047 49.9237 64.0886 49.8797 64.1717 49.8797H64.6339C64.7219 49.8797 64.766 49.9237 64.766 50.0118V50.3639C64.766 50.721 64.6657 50.9998 64.4652 51.2003C64.2646 51.4008 63.9858 51.5011 63.6288 51.5011ZM66.8425 50.8775H67.4808C67.8378 50.8775 68.0164 50.6965 68.0164 50.3346V47.9502C68.0164 47.5883 67.8378 47.4073 67.4808 47.4073H66.8425C66.4903 47.4073 66.3143 47.5883 66.3143 47.9502V50.3346C66.3143 50.6965 66.4903 50.8775 66.8425 50.8775ZM67.5908 51.5011H66.7398C66.3779 51.5011 66.0966 51.4008 65.8961 51.2003C65.7004 50.9998 65.6026 50.721 65.6026 50.3639V47.9208C65.6026 47.5589 65.7004 47.2801 65.8961 47.0845C66.0966 46.8839 66.3779 46.7837 66.7398 46.7837H67.5908C67.9528 46.7837 68.234 46.8839 68.4345 47.0845C68.6351 47.2801 68.7353 47.5589 68.7353 47.9208V50.3639C68.7353 50.721 68.6351 50.9998 68.4345 51.2003C68.234 51.4008 67.9528 51.5011 67.5908 51.5011ZM70.3036 51.5011H69.8487C69.7656 51.5011 69.724 51.4595 69.724 51.3764V46.9084C69.724 46.8253 69.7656 46.7837 69.8487 46.7837H70.2596C70.3378 46.7837 70.3916 46.8106 70.421 46.8644L72.1964 50.0558H72.2258V46.9084C72.2258 46.8253 72.2674 46.7837 72.3505 46.7837H72.8054C72.8885 46.7837 72.9301 46.8253 72.9301 46.9084V51.3764C72.9301 51.4595 72.8885 51.5011 72.8054 51.5011H72.4092C72.3309 51.5011 72.2674 51.462 72.2184 51.3837L70.4577 48.229H70.4283V51.3764C70.4283 51.4595 70.3867 51.5011 70.3036 51.5011ZM74.5809 51.5011H74.126C74.0429 51.5011 74.0013 51.4595 74.0013 51.3764V46.9084C74.0013 46.8253 74.0429 46.7837 74.126 46.7837H74.5369C74.6151 46.7837 74.6689 46.8106 74.6983 46.8644L76.4737 50.0558H76.5031V46.9084C76.5031 46.8253 76.5446 46.7837 76.6278 46.7837H77.0827C77.1658 46.7837 77.2074 46.8253 77.2074 46.9084V51.3764C77.2074 51.4595 77.1658 51.5011 77.0827 51.5011H76.6865C76.6082 51.5011 76.5446 51.462 76.4957 51.3837L74.7349 48.229H74.7056V51.3764C74.7056 51.4595 74.664 51.5011 74.5809 51.5011ZM80.751 51.5011H78.4033C78.3201 51.5011 78.2786 51.4595 78.2786 51.3764V46.9084C78.2786 46.8253 78.3201 46.7837 78.4033 46.7837H80.751C80.8293 46.7837 80.8684 46.8253 80.8684 46.9084V47.2826C80.8684 47.3657 80.8293 47.4073 80.751 47.4073H79.0783C79.0196 47.4073 78.9902 47.4317 78.9902 47.4807V48.7205C78.9902 48.7694 79.0196 48.7939 79.0783 48.7939H80.4942C80.5823 48.7939 80.6263 48.8355 80.6263 48.9186V49.2928C80.6263 49.3759 80.5823 49.4175 80.4942 49.4175H79.0783C79.0196 49.4175 78.9902 49.442 78.9902 49.4909V50.7968C78.9902 50.8506 79.0196 50.8775 79.0783 50.8775H80.751C80.8293 50.8775 80.8684 50.9191 80.8684 51.0022V51.3764C80.8684 51.4595 80.8293 51.5011 80.751 51.5011ZM83.7184 51.5011H82.8674C82.5054 51.5011 82.2242 51.4008 82.0237 51.2003C81.828 50.9998 81.7302 50.721 81.7302 50.3639V47.9208C81.7302 47.5589 81.828 47.2801 82.0237 47.0845C82.2242 46.8839 82.5054 46.7837 82.8674 46.7837H83.7184C84.0755 46.7837 84.3543 46.8839 84.5548 47.0845C84.7553 47.2801 84.8556 47.5589 84.8556 47.9208V48.273C84.8556 48.361 84.8116 48.4051 84.7235 48.4051H84.2613C84.1782 48.4051 84.1366 48.361 84.1366 48.273V47.9502C84.1366 47.5883 83.9605 47.4073 83.6084 47.4073H82.9701C82.6179 47.4073 82.4419 47.5883 82.4419 47.9502V50.3346C82.4419 50.6965 82.6179 50.8775 82.9701 50.8775H83.6084C83.9605 50.8775 84.1366 50.6965 84.1366 50.3346V50.0118C84.1366 49.9237 84.1782 49.8797 84.2613 49.8797H84.7235C84.8116 49.8797 84.8556 49.9237 84.8556 50.0118V50.3639C84.8556 50.721 84.7553 50.9998 84.5548 51.2003C84.3543 51.4008 84.0755 51.5011 83.7184 51.5011ZM87.0568 51.5011H86.5946C86.5066 51.5011 86.4626 51.4595 86.4626 51.3764V47.4807C86.4626 47.4317 86.4381 47.4073 86.3892 47.4073H85.4648C85.3768 47.4073 85.3327 47.3657 85.3327 47.2826V46.9084C85.3327 46.8253 85.3768 46.7837 85.4648 46.7837H88.1867C88.2747 46.7837 88.3187 46.8253 88.3187 46.9084V47.2826C88.3187 47.3657 88.2747 47.4073 88.1867 47.4073H87.2623C87.2085 47.4073 87.1816 47.4317 87.1816 47.4807V51.3764C87.1816 51.4595 87.14 51.5011 87.0568 51.5011ZM93.923 46.7837H94.7447C94.8278 46.7837 94.8694 46.8253 94.8694 46.9084V51.3764C94.8694 51.4595 94.8278 51.5011 94.7447 51.5011H94.2898C94.2067 51.5011 94.1651 51.4595 94.1651 51.3764V47.6714H94.1357L93.182 50.3566C93.1526 50.4348 93.0988 50.474 93.0206 50.474H92.551C92.4777 50.474 92.4263 50.4348 92.397 50.3566L91.4212 47.6641H91.3918V51.3764C91.3918 51.4253 91.3821 51.4595 91.3625 51.4791C91.3478 51.4938 91.316 51.5011 91.2671 51.5011H90.8196C90.7364 51.5011 90.6949 51.4595 90.6949 51.3764V46.9084C90.6949 46.8253 90.7364 46.7837 90.8196 46.7837H91.6413C91.6951 46.7837 91.7342 46.8106 91.7587 46.8644L92.7638 49.6963H92.8005L93.8129 46.8644C93.8227 46.8106 93.8594 46.7837 93.923 46.7837ZM98.4118 51.5011H96.0641C95.981 51.5011 95.9394 51.4595 95.9394 51.3764V46.9084C95.9394 46.8253 95.981 46.7837 96.0641 46.7837H98.4118C98.4901 46.7837 98.5292 46.8253 98.5292 46.9084V47.2826C98.5292 47.3657 98.4901 47.4073 98.4118 47.4073H96.7391C96.6804 47.4073 96.651 47.4317 96.651 47.4807V48.7205C96.651 48.7694 96.6804 48.7939 96.7391 48.7939H98.155C98.2431 48.7939 98.2871 48.8355 98.2871 48.9186V49.2928C98.2871 49.3759 98.2431 49.4175 98.155 49.4175H96.7391C96.6804 49.4175 96.651 49.442 96.651 49.4909V50.7968C96.651 50.8506 96.6804 50.8775 96.7391 50.8775H98.4118C98.4901 50.8775 98.5292 50.9191 98.5292 51.0022V51.3764C98.5292 51.4595 98.4901 51.5011 98.4118 51.5011ZM100.257 50.8775H101.291C101.643 50.8775 101.819 50.6965 101.819 50.3346V47.9502C101.819 47.5883 101.643 47.4073 101.291 47.4073H100.257C100.203 47.4073 100.176 47.4317 100.176 47.4807V50.7968C100.176 50.8506 100.203 50.8775 100.257 50.8775ZM99.4644 51.3764V46.9084C99.4644 46.8253 99.506 46.7837 99.5891 46.7837H101.394C101.751 46.7837 102.03 46.8839 102.23 47.0845C102.436 47.2801 102.538 47.5589 102.538 47.9208V50.3639C102.538 50.721 102.436 50.9998 102.23 51.2003C102.03 51.4008 101.751 51.5011 101.394 51.5011H99.5891C99.506 51.5011 99.4644 51.4595 99.4644 51.3764ZM107.197 51.5011H106.346C105.984 51.5011 105.703 51.4008 105.502 51.2003C105.307 50.9998 105.209 50.721 105.209 50.3639V47.9208C105.209 47.5589 105.307 47.2801 105.502 47.0845C105.703 46.8839 105.984 46.7837 106.346 46.7837H107.197C107.554 46.7837 107.833 46.8839 108.033 47.0845C108.234 47.2801 108.334 47.5589 108.334 47.9208V48.273C108.334 48.361 108.29 48.4051 108.202 48.4051H107.74C107.657 48.4051 107.615 48.361 107.615 48.273V47.9502C107.615 47.5883 107.439 47.4073 107.087 47.4073H106.449C106.096 47.4073 105.92 47.5883 105.92 47.9502V50.3346C105.92 50.6965 106.096 50.8775 106.449 50.8775H107.087C107.439 50.8775 107.615 50.6965 107.615 50.3346V50.0118C107.615 49.9237 107.657 49.8797 107.74 49.8797H108.202C108.29 49.8797 108.334 49.9237 108.334 50.0118V50.3639C108.334 50.721 108.234 50.9998 108.033 51.2003C107.833 51.4008 107.554 51.5011 107.197 51.5011ZM110.411 50.8775H111.049C111.406 50.8775 111.584 50.6965 111.584 50.3346V47.9502C111.584 47.5883 111.406 47.4073 111.049 47.4073H110.411C110.058 47.4073 109.882 47.5883 109.882 47.9502V50.3346C109.882 50.6965 110.058 50.8775 110.411 50.8775ZM111.159 51.5011H110.308C109.946 51.5011 109.665 51.4008 109.464 51.2003C109.269 50.9998 109.171 50.721 109.171 50.3639V47.9208C109.171 47.5589 109.269 47.2801 109.464 47.0845C109.665 46.8839 109.946 46.7837 110.308 46.7837H111.159C111.521 46.7837 111.802 46.8839 112.003 47.0845C112.203 47.2801 112.303 47.5589 112.303 47.9208V50.3639C112.303 50.721 112.203 50.9998 112.003 51.2003C111.802 51.4008 111.521 51.5011 111.159 51.5011ZM113.872 51.5011H113.417C113.334 51.5011 113.292 51.4595 113.292 51.3764V46.9084C113.292 46.8253 113.334 46.7837 113.417 46.7837H113.828C113.906 46.7837 113.96 46.8106 113.989 46.8644L115.765 50.0558H115.794V46.9084C115.794 46.8253 115.835 46.7837 115.919 46.7837H116.373C116.457 46.7837 116.498 46.8253 116.498 46.9084V51.3764C116.498 51.4595 116.457 51.5011 116.373 51.5011H115.977C115.899 51.5011 115.835 51.462 115.787 51.3837L114.026 48.229H113.996V51.3764C113.996 51.4595 113.955 51.5011 113.872 51.5011ZM118.861 51.5011H118.398C118.31 51.5011 118.266 51.4595 118.266 51.3764V47.4807C118.266 47.4317 118.242 47.4073 118.193 47.4073H117.269C117.181 47.4073 117.137 47.3657 117.137 47.2826V46.9084C117.137 46.8253 117.181 46.7837 117.269 46.7837H119.99C120.079 46.7837 120.123 46.8253 120.123 46.9084V47.2826C120.123 47.3657 120.079 47.4073 119.99 47.4073H119.066C119.012 47.4073 118.985 47.4317 118.985 47.4807V51.3764C118.985 51.4595 118.944 51.5011 118.861 51.5011ZM121.337 51.5011H120.875C120.792 51.5011 120.75 51.4595 120.75 51.3764V46.9084C120.75 46.8253 120.792 46.7837 120.875 46.7837H122.592C122.949 46.7837 123.228 46.8864 123.428 47.0918C123.634 47.2923 123.736 47.5711 123.736 47.9282V48.5445C123.736 49.1069 123.504 49.4615 123.04 49.6083V49.6376L123.854 51.3544C123.908 51.4522 123.876 51.5011 123.758 51.5011H123.304C123.186 51.5011 123.11 51.4595 123.076 51.3764L122.291 49.689H121.55C121.491 49.689 121.462 49.7134 121.462 49.7623V51.3764C121.462 51.4595 121.421 51.5011 121.337 51.5011ZM121.543 49.102H122.475C122.837 49.102 123.018 48.9235 123.018 48.5665V47.9502C123.018 47.5883 122.837 47.4073 122.475 47.4073H121.543C121.489 47.4073 121.462 47.4317 121.462 47.4807V49.0287C121.462 49.0776 121.489 49.102 121.543 49.102ZM125.893 50.8775H126.532C126.889 50.8775 127.067 50.6965 127.067 50.3346V47.9502C127.067 47.5883 126.889 47.4073 126.532 47.4073H125.893C125.541 47.4073 125.365 47.5883 125.365 47.9502V50.3346C125.365 50.6965 125.541 50.8775 125.893 50.8775ZM126.642 51.5011H125.791C125.429 51.5011 125.147 51.4008 124.947 51.2003C124.751 50.9998 124.654 50.721 124.654 50.3639V47.9208C124.654 47.5589 124.751 47.2801 124.947 47.0845C125.147 46.8839 125.429 46.7837 125.791 46.7837H126.642C127.004 46.7837 127.285 46.8839 127.485 47.0845C127.686 47.2801 127.786 47.5589 127.786 47.9208V50.3639C127.786 50.721 127.686 50.9998 127.485 51.2003C127.285 51.4008 127.004 51.5011 126.642 51.5011ZM131.277 51.5011H128.9C128.816 51.5011 128.775 51.4595 128.775 51.3764V46.9084C128.775 46.8253 128.816 46.7837 128.9 46.7837H129.362C129.445 46.7837 129.487 46.8253 129.487 46.9084V50.7895C129.487 50.8384 129.516 50.8628 129.575 50.8628H131.277C131.36 50.8628 131.401 50.9068 131.401 50.9949V51.3764C131.401 51.4595 131.36 51.5011 131.277 51.5011Z" fill="white"/>
<defs>
<filter id="filter0_d_5_40" x="0.850983" y="0.791229" width="54.529" height="61.3728" filterUnits="userSpaceOnUse" color-interpolation-filters="sRGB">
<feFlood flood-opacity="0" result="BackgroundImageFix"/>
<feColorMatrix in="SourceAlpha" type="matrix" values="0 0 0 0 0 0 0 0 0 0 0 0 0 0 0 0 0 0 127 0" result="hardAlpha"/>
<feOffset/>
<feGaussianBlur stdDeviation="3.07451"/>
<feComposite in2="hardAlpha" operator="out"/>
<feColorMatrix type="matrix" values="0 0 0 0 0.496145 0 0 0 0 0.31875 0 0 0 0 0.9 0 0 0 0.33 0"/>
<feBlend mode="normal" in2="BackgroundImageFix" result="effect1_dropShadow_5_40"/>
<feBlend mode="normal" in="SourceGraphic" in2="effect1_dropShadow_5_40" result="shape"/>
</filter>
</defs>
</svg>
