<svg width="56" height="63" viewBox="0 0 56 63" fill="none" xmlns="http://www.w3.org/2000/svg">
<g filter="url(#filter0_d_5_41)">
<mask id="mask0_5_41" style="mask-type:alpha" maskUnits="userSpaceOnUse" x="17" y="19" width="22" height="25">
<path d="M26.9715 19.6311L23.543 21.6718C22.4818 22.3248 20.0982 23.7942 19.0534 24.4472C18.0085 25.1003 17.6929 25.8077 17.6656 26.0798V36.4468C17.6656 37.4917 18.1554 38.025 18.4003 38.1611C20.822 39.6304 25.9266 42.7323 26.9715 43.3854C28.0163 44.0384 29.0394 43.6575 29.4204 43.3854C31.7332 41.9977 36.5875 39.0753 37.5017 38.4876C38.416 37.8998 38.6446 37.0455 38.6446 36.6917V26.0798C38.6446 25.3615 38.0459 24.8554 37.7466 24.6921C35.3794 23.2772 30.3999 20.2841 29.4204 19.6311C28.4408 18.978 27.3796 19.359 26.9715 19.6311Z" fill="#11B2E4"/>
</mask>
<g mask="url(#mask0_5_41)">
<path d="M26.9715 19.6311L23.543 21.6718C22.4818 22.3248 20.0982 23.7942 19.0534 24.4472C18.0085 25.1003 17.6929 25.8077 17.6656 26.0798V36.4468C17.6656 37.4917 18.1554 38.025 18.4003 38.1611C20.822 39.6304 25.9266 42.7323 26.9715 43.3854C28.0163 44.0384 29.0394 43.6575 29.4204 43.3854C31.7332 41.9977 36.5875 39.0753 37.5017 38.4876C38.416 37.8998 38.6446 37.0455 38.6446 36.6917V26.0798C38.6446 25.3615 38.0459 24.8554 37.7466 24.6921C35.3794 23.2772 30.3999 20.2841 29.4204 19.6311C28.4408 18.978 27.3796 19.359 26.9715 19.6311Z" fill="#8B59FC"/>
<path d="M28.0078 31.4863L18.2564 37.2843C17.983 37.4469 17.9721 37.8385 18.2376 38.0139C20.8799 39.7598 25.4727 42.7708 26.4694 43.3308C27.5426 43.9338 28.5376 43.7496 28.9009 43.5821L38.0212 38.006C38.2973 37.8372 38.2962 37.4358 38.0192 37.2684L28.4515 31.4878C28.3152 31.4055 28.1447 31.4049 28.0078 31.4863Z" fill="#7F51E6"/>
<path d="M38.7216 25.0956L28.0185 31.4559C27.9786 31.4797 27.9782 31.5373 28.0178 31.5615L38.7178 38.1026C38.7475 38.1207 38.7862 38.1107 38.8035 38.0805L39.1121 37.54C39.1174 37.5307 39.1202 37.5201 39.1202 37.5094V25.6071C39.1202 25.595 39.1166 25.5831 39.1099 25.5729L38.8045 25.1144C38.7863 25.0871 38.7499 25.0788 38.7216 25.0956Z" fill="#754AD7"/>
</g>
<path d="M49.231 19.2089L43.3053 15.8705L43.2218 40.241L28.1155 48.9209L17.8499 43.0786V50.0058L28.1155 56.015L49.231 43.6628V19.2089Z" fill="#8B5CF6"/>
<path d="M38.3811 12.9494V19.7097L28.032 14.1178L13.0092 22.7977V47.1682L7 43.7463V19.2089L28.032 6.94025L38.3811 12.9494Z" fill="#8B5CF6"/>
</g>
<defs>
<filter id="filter0_d_5_41" x="0.850983" y="0.791229" width="54.529" height="61.3728" filterUnits="userSpaceOnUse" color-interpolation-filters="sRGB">
<feFlood flood-opacity="0" result="BackgroundImageFix"/>
<feColorMatrix in="SourceAlpha" type="matrix" values="0 0 0 0 0 0 0 0 0 0 0 0 0 0 0 0 0 0 127 0" result="hardAlpha"/>
<feOffset/>
<feGaussianBlur stdDeviation="3.07451"/>
<feComposite in2="hardAlpha" operator="out"/>
<feColorMatrix type="matrix" values="0 0 0 0 0.496145 0 0 0 0 0.31875 0 0 0 0 0.9 0 0 0 0.33 0"/>
<feBlend mode="normal" in2="BackgroundImageFix" result="effect1_dropShadow_5_41"/>
<feBlend mode="normal" in="SourceGraphic" in2="effect1_dropShadow_5_41" result="shape"/>
</filter>
</defs>
</svg>
